<svg xmlns="http://www.w3.org/2000/svg" width="900" height="520" viewBox="0 0 900 520" role="img" aria-label="Community event illustration">
  <rect width="900" height="520" fill="#e7f1ff"/>
  <circle cx="735" cy="115" r="58" fill="#ffc107"/>
  <path d="M0 385 C135 330 220 420 345 360 C500 288 630 405 760 338 C830 302 872 315 900 300 L900 520 L0 520 Z" fill="#20c997"/>
  <rect x="92" y="178" width="165" height="190" rx="14" fill="#ffffff"/>
  <rect x="297" y="118" width="220" height="250" rx="14" fill="#ffffff"/>
  <rect x="560" y="162" width="190" height="206" rx="14" fill="#ffffff"/>
  <g fill="#0d6efd" opacity="0.32">
    <rect x="130" y="215" width="36" height="38" rx="4"/>
    <rect x="185" y="215" width="36" height="38" rx="4"/>
    <rect x="350" y="168" width="42" height="44" rx="4"/>
    <rect x="425" y="168" width="42" height="44" rx="4"/>
    <rect x="610" y="205" width="42" height="44" rx="4"/>
    <rect x="680" y="205" width="42" height="44" rx="4"/>
  </g>
  <g fill="#212529" opacity="0.56">
    <circle cx="215" cy="405" r="24"/>
    <circle cx="285" cy="405" r="24"/>
    <circle cx="452" cy="393" r="27"/>
    <circle cx="535" cy="393" r="27"/>
    <circle cx="680" cy="405" r="24"/>
  </g>
</svg>
